# Blender v3.0.0 OBJ File: ''
# www.blender.org
mtllib ground.mtl
o Plane
v -69.874741 -0.258013 92.147865
v 5.081985 -0.258013 92.147865
v 5.081988 -0.258001 17.191143
v -69.874741 -0.258001 17.191141
v 80.038712 -0.258013 92.147865
v 80.038712 -0.258001 17.191141
v 80.038712 -0.257989 -57.765587
v 5.081985 -0.257989 -57.765587
v -69.874741 -0.257989 -57.765587
vt 0.000000 0.000000
vt 0.500000 0.000000
vt 0.500000 0.500000
vt 0.000000 0.500000
vt 1.000000 0.000000
vt 1.000000 0.500000
vt 1.000000 1.000000
vt 0.500000 1.000000
vt 0.000000 1.000000
vn 0.0000 1.0000 0.0000
usemtl Material.001
s 1
f 1/1/1 2/2/1 3/3/1 4/4/1
f 2/2/1 5/5/1 6/6/1 3/3/1
f 3/3/1 6/6/1 7/7/1 8/8/1
f 4/4/1 3/3/1 8/8/1 9/9/1
